<svg viewBox="0 0 174 36" xmlns="http://www.w3.org/2000/svg" fill-rule="evenodd" clip-rule="evenodd" stroke-linejoin="round" stroke-miterlimit="1.414"><g><path d="M8.56 10.688c-2.738 0-4.966 2.224-4.966 4.958v3.837c0 2.734 2.228 4.958 4.966 4.958h.436c2.738 0 4.966-2.223 4.966-4.957v-3.837c0-2.734-2.228-4.958-4.966-4.958H8.56zM3.594 36H0V15.646C0 10.933 3.84 7.1 8.56 7.1h.436c4.72 0 8.56 3.833 8.56 8.546v3.837c0 4.713-3.84 8.547-8.56 8.547H8.56c-1.797 0-3.533-.56-4.966-1.593V36zM53.334 27.96H49.93V15.632c0-2.788-2.273-5.056-5.065-5.056h-.437c-2.793 0-5.065 2.268-5.065 5.056v3.84c0 2.788 2.272 5.056 5.065 5.056h.437c1.35 0 2.638-.52 3.624-1.466l.986-.98v.878c0 .506-.003 1.37-.007 2.12-.003.572-.006 1.078-.006 1.303v.205l-.174.107c-1.312.806-2.843 1.232-4.425 1.232h-.437c-4.67 0-8.47-3.794-8.47-8.457v-3.84c0-4.662 3.8-8.455 8.47-8.455h.437c4.67 0 8.47 3.793 8.47 8.455V27.96zM35.255 27.973h-3.53v-12.3c0-2.706-2.207-4.91-4.918-4.91-2.71 0-4.917 2.204-4.917 4.91v12.288h-3.578V0h3.578v8.765c1.42-1.02 3.138-1.573 4.917-1.573 4.658 0 8.448 3.805 8.448 8.482v12.3zM139.09 27.928h-.436c-4.654 0-8.453-3.78-8.47-8.428v-3.868c0-4.662 3.8-8.456 8.47-8.456h.437c4.67 0 8.47 3.794 8.47 8.456v3.84c-.013 4.663-3.813 8.456-8.47 8.456zm-.436-17.352c-2.792 0-5.064 2.268-5.064 5.056v3.84c0 2.788 2.272 5.056 5.064 5.056h.437c2.794 0 5.066-2.268 5.066-5.056v-3.84c0-2.788-2.272-5.056-5.065-5.056h-.436z" fill="#009ddc"/><path d="M155.488 21.484c-.876-1.512-1.38-3.268-1.38-5.14 0-5.68 4.617-10.29 10.306-10.29.968 0 1.746.785 1.746 1.75 0 .967-.784 1.75-1.752 1.75-3.755 0-6.8 3.04-6.8 6.79 0 1.236.336 2.394.914 3.392.148.257.23.555.23.873 0 .965-.783 1.75-1.752 1.75-.647 0-1.21-.354-1.512-.876zm5.18-9.175c-1.087 1.003-1.767 2.44-1.767 4.034 0 1 .27 1.937.74 2.747.263.454.405.975.405 1.52 0 1.214-.713 2.26-1.744 2.748 1.415.437 3 .307 4.383-.49.868-.5 1.545-1.203 2.013-2.014.262-.453.643-.836 1.115-1.108 1.054-.608 2.32-.515 3.258.134-.33-1.44-1.234-2.747-2.617-3.545-.867-.5-1.815-.734-2.752-.733-.524 0-1.047-.138-1.52-.41-1.052-.607-1.605-1.748-1.51-2.883zm8.18 10.938c-.874 1.514-2.144 2.83-3.768 3.765-4.927 2.84-11.233 1.15-14.078-3.77-.484-.835-.193-1.9.645-2.383.838-.483 1.91-.197 2.394.64 1.878 3.246 6.037 4.36 9.29 2.484 1.07-.618 1.908-1.486 2.485-2.485.15-.258.366-.478.642-.637.838-.483 1.91-.196 2.394.64.324.56.3 1.222-.002 1.745zm-5.15-12.434c1.75 0 3.526.44 5.15 1.376 4.927 2.84 6.615 9.138 3.77 14.057-.484.837-1.552 1.117-2.39.634-.838-.482-1.126-1.55-.643-2.388 1.878-3.247.764-7.4-2.488-9.274-1.073-.618-2.244-.907-3.4-.906-.297 0-.596-.078-.872-.237-.838-.483-1.125-1.553-.64-2.39.323-.56.91-.87 1.514-.87z" fill="#adb0b2"/><path d="M57.487 27.928h-3.404V7.168h3.404v1.695c1.46-1.09 3.23-1.685 5.064-1.687l.174.003c.695.015 1.382.115 2.046.297l.27.074v3.654l-.512-.22c-.626-.268-1.29-.406-1.978-.408-2.79 0-5.063 2.268-5.063 5.056v12.296zM96.188 27.928h-3.405V15.632c0-2.778-2.263-5.046-5.044-5.056-2.79 0-5.063 2.268-5.063 5.056v12.296h-3.405V15.632c0-2.778-2.262-5.046-5.043-5.056-2.79 0-5.063 2.268-5.063 5.056v12.296h-3.405V7.168h3.405v1.695c1.46-1.09 3.23-1.685 5.064-1.687l.174.003c2.596.06 5.015 1.31 6.572 3.376 1.6-2.124 4.092-3.378 6.764-3.38l.174.003c4.563.105 8.274 3.897 8.274 8.452v12.296zM114.383 27.96h-3.405V15.632c0-2.788-2.272-5.056-5.064-5.056h-.438c-2.792 0-5.064 2.268-5.064 5.056v3.84c0 2.788 2.272 5.056 5.064 5.056h.438c1.35 0 2.637-.52 3.623-1.466l.988-.98v.878c0 .506-.004 1.37-.007 2.12l-.005 1.303v.205l-.175.107c-1.312.806-2.842 1.232-4.424 1.232h-.438c-4.67 0-8.47-3.794-8.47-8.457v-3.84c0-4.662 3.8-8.455 8.47-8.455h.438c4.67 0 8.47 3.793 8.47 8.455V27.96zM115.877 27.93h-.74v-3.403h.74c2.783-.007 5.05-2.274 5.05-5.054v-3.84c0-2.78-2.267-5.047-5.05-5.054h-.74V7.175h.74c4.662.008 8.454 3.8 8.454 8.457v3.84c0 4.654-3.79 8.448-8.453 8.457zM130.13 27.93h-.74c-4.657-.015-8.444-3.81-8.444-8.457v-3.84c0-4.652 3.79-8.445 8.45-8.457h.742v3.403h-.74c-2.783.008-5.047 2.275-5.047 5.053v3.84c0 2.773 2.262 5.04 5.04 5.054h.74v3.403z" fill="#009ddc"/></g></svg>