<?xml version="1.0" encoding="utf-8"?>
<!-- Generator: Adobe Illustrator 18.1.1, SVG Export Plug-In . SVG Version: 6.00 Build 0)  -->
<!DOCTYPE svg PUBLIC "-//W3C//DTD SVG 1.1//EN" "http://www.w3.org/Graphics/SVG/1.1/DTD/svg11.dtd">
<svg version="1.1" id="Layer_1" xmlns="http://www.w3.org/2000/svg" xmlns:xlink="http://www.w3.org/1999/xlink" x="0px" y="0px"
	 viewBox="0 0 212 36" enable-background="new 0 0 212 36" xml:space="preserve">
<g>
	<path fill="#ADAFB1" d="M131.7,35.3h-1c-6.2,0-11.2-5-11.2-11.2V19c0-3.6-3-6.6-6.6-6.6h-2.5c-3.6,0-6.6,3-6.6,6.6v5.1
		c0,3.6,3,6.6,6.6,6.6h2.5c1.8,0,3.4-0.7,4.7-1.9l1.1-1.1l0.3,0.8c0.4,1.1,1,2.1,1.7,3l0.3,0.4l-0.3,0.3c-2,2-4.8,3.1-7.7,3.1h-2.5
		c-6.2,0-11.2-5-11.2-11.2V19c0-6.2,5-11.2,11.2-11.2h2.5c6.2,0,11.2,5,11.2,11.2v5.1c0,3.6,3,6.6,6.6,6.6h1V35.3L131.7,35.3z"/>
</g>
<g>
	<path fill="#ADAFB1" d="M134.1,35.3h-1v-4.6h1c3.6,0,6.6-3,6.6-6.6V19c0-6.2,5-11.2,11.2-11.2h1v4.6h-1c-3.6,0-6.6,3-6.6,6.6v5.1
		C145.3,30.3,140.3,35.3,134.1,35.3L134.1,35.3z"/>
</g>
<g>
	<path fill="#ADAFB1" d="M165.8,35.3L165.8,35.3c-6.2,0-11.2-5-11.2-11.2V7.8h4.6v16.3c0,3.6,3,6.6,6.6,6.6c3.6,0,6.6-3,6.6-6.6V7.8
		h4.6v16.3c0,6.1-4.9,11.1-11,11.2L165.8,35.3L165.8,35.3z"/>
</g>
<path fill="#009CDB" d="M14.1,35.4h-2.5c-6.3,0-11.4-5.1-11.4-11.4V0h4.9v9.7c1.9-1.3,4.1-2,6.5-2h2.5c6.3,0,11.4,5.1,11.4,11.4v5.1
	C25.5,30.3,20.4,35.4,14.1,35.4L14.1,35.4z M11.6,12.5c-3.6,0-6.5,2.9-6.5,6.5v5.1c0,3.6,2.9,6.5,6.5,6.5h2.5c3.6,0,6.5-2.9,6.5-6.5
	V19c0-3.6-2.9-6.5-6.5-6.5H11.6L11.6,12.5z"/>
<g>
	<path fill="#009CDB" d="M73.3,35.4h-1.2c-6.2,0-11.3-5.1-11.3-11.3V0.2h4.8v7.5c2.5,0,4.1,0,4.1,0l0.5,0v4.8l-4.6,0v11.4
		c0,3.5,2.9,6.4,6.4,6.4h1.2V35.4L73.3,35.4z"/>
</g>
<g>
	<path fill="#009CDB" d="M97.5,35.4h-4.8V19.1c0-3.5-2.9-6.4-6.4-6.4c-3.5,0-6.4,2.9-6.4,6.4v16.3h-4.8V0.2h4.8v9.6
		c1.9-1.3,4.1-2,6.4-2c6.2,0,11.2,5.1,11.2,11.3V35.4L97.5,35.4z"/>
</g>
<g>
	<path fill="#009CDB" d="M60,35.3h-1c-6.2,0-11.2-5-11.2-11.2V19c0-3.6-3-6.6-6.6-6.6h-2.5c-3.6,0-6.6,3-6.6,6.6v5.1
		c0,3.6,3,6.6,6.6,6.6h2.5c1.8,0,3.4-0.7,4.7-1.9l1.1-1.1l0.3,0.8c0.4,1.1,1,2.1,1.7,3l0.3,0.4l-0.3,0.3c-2,2-4.8,3.1-7.7,3.1h-2.5
		c-6.2,0-11.2-5-11.2-11.2V19c0-6.2,5-11.2,11.2-11.2h2.5c6.2,0,11.2,5,11.2,11.2v5.1c0,3.6,3,6.6,6.6,6.6h1V35.3L60,35.3z"/>
</g>
<g>
	<path fill="#009CDB" d="M189.2,28c-0.9,0-1.7-0.5-2.1-1.2c-1.2-2.1-1.8-4.4-1.8-6.8c0-7.6,6.1-13.7,13.7-13.7
		c1.3,0,2.4,1.1,2.4,2.4c0,1.3-1.1,2.4-2.4,2.4c-4.9,0-8.9,4-8.9,8.9c0,1.6,0.4,3.1,1.2,4.4c0.2,0.4,0.3,0.8,0.3,1.2
		C191.6,26.9,190.5,28,189.2,28L189.2,28z"/>
</g>
<path fill="#009CDB" d="M194.1,14.6c-1.4,1.3-2.3,3.2-2.3,5.3c0,1.3,0.4,2.6,1,3.6c0.3,0.6,0.5,1.3,0.5,2c0,1.6-0.9,3-2.3,3.6
	c1.9,0.6,4,0.4,5.8-0.6c1.1-0.7,2-1.6,2.7-2.7c0.3-0.6,0.8-1.1,1.5-1.5c1.4-0.8,3.1-0.7,4.3,0.2c-0.4-1.9-1.6-3.6-3.5-4.7
	c-1.1-0.7-2.4-1-3.6-1c-0.7,0-1.4-0.2-2-0.5C194.7,17.7,193.9,16.1,194.1,14.6L194.1,14.6z"/>
<g>
	<path fill="#009CDB" d="M193.1,36c-4.9,0-9.4-2.6-11.9-6.9c-0.7-1.1-0.3-2.6,0.9-3.3c1.1-0.6,2.7-0.2,3.3,0.9
		c1.6,2.7,4.5,4.4,7.7,4.4c1.5,0,3.1-0.4,4.4-1.2c1.3-0.8,2.5-1.9,3.2-3.2c0.2-0.4,0.5-0.7,0.9-0.9c1.1-0.6,2.7-0.2,3.3,0.9
		c0.4,0.7,0.4,1.7,0,2.4c-1.2,2.1-2.9,3.8-5,5C197.8,35.4,195.5,36,193.1,36L193.1,36z"/>
</g>
<g>
	<path fill="#009CDB" d="M207.8,34.3c-0.4,0-0.8-0.1-1.2-0.3c-1.2-0.7-1.5-2.1-0.9-3.3c2.4-4.2,1-9.7-3.2-12.1
		c-1.3-0.8-2.9-1.2-4.4-1.2c-0.4,0-0.8-0.1-1.2-0.3c-1.2-0.7-1.5-2.1-0.9-3.3c0.4-0.7,1.2-1.2,2.1-1.2c2.4,0,4.8,0.6,6.8,1.8
		c3.2,1.8,5.4,4.8,6.4,8.3c0.9,3.5,0.5,7.2-1.4,10.4C209.5,33.9,208.7,34.3,207.8,34.3L207.8,34.3z"/>
</g>
</svg>
